HIERARCHY
ROOT Hips
{
  OFFSET 5.84602e-005 68.8428 3.50346
  CHANNELS 6 Xposition Yposition Zposition Zrotation Xrotation Yrotation
  JOINT Spine
  {
    OFFSET 0 8.597 -4.6522
    CHANNELS 3 Zrotation Xrotation Yrotation
    JOINT Spine1
    {
      OFFSET 0 7.8454 0.4098
      CHANNELS 3 Zrotation Xrotation Yrotation
      JOINT Spine2
      {
        OFFSET 0 9.7078 -2.1609
        CHANNELS 3 Zrotation Xrotation Yrotation
        JOINT Neck
        {
          OFFSET 0 21.8761 -0.4549
          CHANNELS 3 Zrotation Xrotation Yrotation
          JOINT Head
          {
            OFFSET 0 12.3537 3.3602
            CHANNELS 3 Zrotation Xrotation Yrotation
            End Site
            {
              OFFSET 0.0001 18.9506 0.5657
            }
          }
        }
        JOINT LeftShoulder
        {
          OFFSET 2.2086 21.1115 7.2329
          CHANNELS 3 Zrotation Xrotation Yrotation
          JOINT LeftArm
          {
            OFFSET 13.1193 3.0282 -4.8998
            CHANNELS 3 Zrotation Xrotation Yrotation
            JOINT LeftForeArm
            {
              OFFSET 27.4081 -0.0973053 -0.2375
              CHANNELS 3 Zrotation Xrotation Yrotation
              JOINT LeftHand
              {
                OFFSET 22.8641 0.0662994 -0.1369
                CHANNELS 3 Zrotation Xrotation Yrotation
                JOINT LeftHandIndex1
                {
                  OFFSET 8.8614 0.775009 2.4612
                  CHANNELS 3 Zrotation Xrotation Yrotation
                  JOINT LeftHandIndex2
                  {
                    OFFSET 3.3146 -0.808304 0.5841
                    CHANNELS 3 Zrotation Xrotation Yrotation
                    JOINT LeftHandIndex3
                    {
                      OFFSET 2.2628 -0.552002 0.3989
                      CHANNELS 3 Zrotation Xrotation Yrotation
                      End Site
                      {
                        OFFSET 1.6102 -0.4807 0.2612
                      }
                    }
                  }
                }
                JOINT LeftHandMiddle1
                {
                  OFFSET 8.9937 0.895004 0.2143
                  CHANNELS 3 Zrotation Xrotation Yrotation
                  JOINT LeftHandMiddle2
                  {
                    OFFSET 4.0984 0.0113983 -0.0242
                    CHANNELS 3 Zrotation Xrotation Yrotation
                    JOINT LeftHandMiddle3
                    {
                      OFFSET 2.2716 0.00689697 -0.0138001
                      CHANNELS 3 Zrotation Xrotation Yrotation
                      End Site
                      {
                        OFFSET 2.0404 -0.1441 0.0027
                      }
                    }
                  }
                }
                JOINT LeftHandRing1
                {
                  OFFSET 8.5234 0.597198 -2.0164
                  CHANNELS 3 Zrotation Xrotation Yrotation
                  JOINT LeftHandRing2
                  {
                    OFFSET 3.7188 -0.188293 -0.2328
                    CHANNELS 3 Zrotation Xrotation Yrotation
                    JOINT LeftHandRing3
                    {
                      OFFSET 2.1191 -0.106598 -0.1332
                      CHANNELS 3 Zrotation Xrotation Yrotation
                      End Site
                      {
                        OFFSET 1.8737 -0.2304 -0.0886
                      }
                    }
                  }
                }
                JOINT LeftHandPinky1
                {
                  OFFSET 7.9094 -0.601089 -3.4825
                  CHANNELS 3 Zrotation Xrotation Yrotation
                  JOINT LeftHandPinky2
                  {
                    OFFSET 2.2874 -0.477005 -0.6314
                    CHANNELS 3 Zrotation Xrotation Yrotation
                    JOINT LeftHandPinky3
                    {
                      OFFSET 1.6774 -0.349396 -0.4633
                      CHANNELS 3 Zrotation Xrotation Yrotation
                      End Site
                      {
                        OFFSET 1.4888 -0.4091 -0.3416
                      }
                    }
                  }
                }
                JOINT LeftHandThumb1
                {
                  OFFSET 1.833 -1.3875 1.3896
                  CHANNELS 3 Zrotation Xrotation Yrotation
                  JOINT LeftHandThumb2
                  {
                    OFFSET 3.4129 -1.121 2.5732
                    CHANNELS 3 Zrotation Xrotation Yrotation
                    JOINT LeftHandThumb3
                    {
                      OFFSET 2.2474 -0.804199 1.6192
                      CHANNELS 3 Zrotation Xrotation Yrotation
                      End Site
                      {
                        OFFSET 1.6527 -0.5689 1.1317
                      }
                    }
                  }
                }
              }
            }
          }
        }
        JOINT RightShoulder
        {
          OFFSET -2.2086 21.1115 7.2329
          CHANNELS 3 Zrotation Xrotation Yrotation
          JOINT RightArm
          {
            OFFSET -13.1216 3.0287 -4.9007
            CHANNELS 3 Zrotation Xrotation Yrotation
            JOINT RightForeArm
            {
              OFFSET -27.4081 -0.0973053 -0.2375
              CHANNELS 3 Zrotation Xrotation Yrotation
              JOINT RightHand
              {
                OFFSET -22.8641 0.0664063 -0.1369
                CHANNELS 3 Zrotation Xrotation Yrotation
                JOINT RightHandIndex1
                {
                  OFFSET -8.8614 0.774994 2.4612
                  CHANNELS 3 Zrotation Xrotation Yrotation
                  JOINT RightHandIndex2
                  {
                    OFFSET -3.3146 -0.808304 0.5841
                    CHANNELS 3 Zrotation Xrotation Yrotation
                    JOINT RightHandIndex3
                    {
                      OFFSET -2.2628 -0.552002 0.3989
                      CHANNELS 3 Zrotation Xrotation Yrotation
                      End Site
                      {
                        OFFSET -1.6102 -0.4807 0.2612
                      }
                    }
                  }
                }
                JOINT RightHandMiddle1
                {
                  OFFSET -8.9937 0.894989 0.2143
                  CHANNELS 3 Zrotation Xrotation Yrotation
                  JOINT RightHandMiddle2
                  {
                    OFFSET -4.0984 0.0113983 -0.0242
                    CHANNELS 3 Zrotation Xrotation Yrotation
                    JOINT RightHandMiddle3
                    {
                      OFFSET -2.2716 0.00691223 -0.0138001
                      CHANNELS 3 Zrotation Xrotation Yrotation
                      End Site
                      {
                        OFFSET -2.0404 -0.1441 0.0027
                      }
                    }
                  }
                }
                JOINT RightHandRing1
                {
                  OFFSET -8.5234 0.597198 -2.0164
                  CHANNELS 3 Zrotation Xrotation Yrotation
                  JOINT RightHandRing2
                  {
                    OFFSET -3.7188 -0.188309 -0.2328
                    CHANNELS 3 Zrotation Xrotation Yrotation
                    JOINT RightHandRing3
                    {
                      OFFSET -2.1191 -0.106598 -0.1332
                      CHANNELS 3 Zrotation Xrotation Yrotation
                      End Site
                      {
                        OFFSET -1.8737 -0.2304 -0.0886
                      }
                    }
                  }
                }
                JOINT RightHandPinky1
                {
                  OFFSET -7.9094 -0.601105 -3.4825
                  CHANNELS 3 Zrotation Xrotation Yrotation
                  JOINT RightHandPinky2
                  {
                    OFFSET -2.2874 -0.477005 -0.6314
                    CHANNELS 3 Zrotation Xrotation Yrotation
                    JOINT RightHandPinky3
                    {
                      OFFSET -1.6774 -0.349396 -0.4633
                      CHANNELS 3 Zrotation Xrotation Yrotation
                      End Site
                      {
                        OFFSET -1.4888 -0.4091 -0.3416
                      }
                    }
                  }
                }
                JOINT RightHandThumb1
                {
                  OFFSET -1.833 -1.38751 1.3896
                  CHANNELS 3 Zrotation Xrotation Yrotation
                  JOINT RightHandThumb2
                  {
                    OFFSET -3.41299 -1.12099 2.5732
                    CHANNELS 3 Zrotation Xrotation Yrotation
                    JOINT RightHandThumb3
                    {
                      OFFSET -2.24741 -0.804108 1.6192
                      CHANNELS 3 Zrotation Xrotation Yrotation
                      End Site
                      {
                        OFFSET -1.6527 -0.5689 1.1317
                      }
                    }
                  }
                }
              }
            }
          }
        }
      }
    }
  }
  JOINT RightUpLeg
  {
    OFFSET -9.1966 3.8861 -0.7581
    CHANNELS 3 Zrotation Xrotation Yrotation
    JOINT RightLeg
    {
      OFFSET -0.7359 -41.0265 0
      CHANNELS 3 Zrotation Xrotation Yrotation
      JOINT RightFoot
      {
        OFFSET 0 -40.2855 0
        CHANNELS 3 Zrotation Xrotation Yrotation
        JOINT RightToeBase
        {
          OFFSET 0 -5.6122 11.7359
          CHANNELS 3 Zrotation Xrotation Yrotation
          End Site
          {
            OFFSET 0 0 7.8731
          }
        }
      }
    }
  }
  JOINT LeftUpLeg
  {
    OFFSET 9.1965 3.8864 -0.7581
    CHANNELS 3 Zrotation Xrotation Yrotation
    JOINT LeftLeg
    {
      OFFSET 0.7359 -41.0268 0
      CHANNELS 3 Zrotation Xrotation Yrotation
      JOINT LeftFoot
      {
        OFFSET 0 -40.2855 0
        CHANNELS 3 Zrotation Xrotation Yrotation
        JOINT LeftToeBase
        {
          OFFSET 0 -5.6122 11.7359
          CHANNELS 3 Zrotation Xrotation Yrotation
          End Site
          {
            OFFSET 0 0 7.8731
          }
        }
      }
    }
  }
}
MOTION
Frames:	4
Frame Time:	0.0333333
5.84602e-005 68.8428 3.50346 0 0 -0 0 0 -0 0 0 -0 0 0 -0 0 0 -0 0 0 -0 0 0 -0 0 0 -0 0 0 -0 0 0 -0 0 0 -0 0 0 -0 0 0 -0 0 0 -0 -0.0146107 -8.87603e-005 -2.63497e-007 2.99804e-018 -2.42657e-020 -1.42182e-022 0 0 -0 -0.0187562 -0.001176 5.858e-005 5.06224e-018 3.88251e-019 1.21329e-020 0 0 -0 -0.012269 -0.00324817 0.000675346 -1.74678e-018 3.88251e-019 -0 0 0 -0 0 0 -0 0 0 -0 0 0 -0 0 0 -0 0 0 -0 0 0 -0 0 0 -0 0 0 -0 0 0 -0 0 0 -0 0.0149955 -9.10982e-005 2.64101e-007 -9.69331e-018 1.21329e-020 -4.7394e-023 0 0 -0 0.0189956 -0.00119102 -5.96516e-005 -5.41541e-019 0 2.42657e-020 0 0 -0 0.0122698 -0.00324857 -0.000673756 -2.00796e-019 0 -1.94126e-019 0 0 -0 0 0 -0 0 0 -0 3.39842 1.33031 -0.0637918 -5.65207e-008 0.834868 -0.000436188 -3.39935 -2.16518 -0.0642563 -8.89002e-024 -1.18485e-023 -1.48106e-024 -3.39844 1.35642 0.0640283 -3.18788e-007 0.782166 -0.000588827 3.39931 -2.13858 0.0634662 1.1399e-023 0 -0 
12.4421 2.86815 20.0897 -49.6974 61.9718 46.144 -1.37452 3.30683 0.217976 -2.76858 6.60742 0.516777 -2.76858 6.60743 0.516782 0.000133243 -24.0064 1.649e-005 -0.0600579 -22.3427 -0.02434 -8.26566 -0.192599 6.95903 -49.0979 -41.6438 -35.5868 46.7689 -31.2661 -113.697 26.7826 9.29016 -19.4732 -4.77083e-015 -1.19271e-015 1.59028e-015 9.68215e-007 -4.93142e-007 -9.92645e-007 2.02009e-006 5.48197e-007 3.18435e-007 -4.77083e-015 -1.19271e-015 1.59028e-015 -0.0146101 -8.617e-005 4.05145e-006 2.02013e-006 5.48156e-007 3.18504e-007 -4.77083e-015 -1.19271e-015 1.59028e-015 -0.0187322 -0.00117284 5.74729e-005 2.02014e-006 5.48147e-007 3.18504e-007 -4.77083e-015 -1.19271e-015 1.59028e-015 -0.0122632 -0.00324729 0.000672156 2.02013e-006 5.48159e-007 3.18435e-007 -4.77083e-015 -1.19271e-015 1.59028e-015 9.68215e-007 -4.93142e-007 -9.92645e-007 2.02009e-006 5.48197e-007 3.18435e-007 4.75968 -0.170082 -4.469 58.7256 -39.6531 52.1452 -50.7655 -19.4064 93.4372 8.8403 -37.1413 -8.50142 5.30957e-007 1.53204e-007 4.09479e-006 2.48017e-006 -8.68502e-007 5.44497e-006 5.30957e-007 1.53204e-007 4.09479e-006 5.30957e-007 1.53204e-007 4.09479e-006 0.0149571 -9.16425e-005 2.02239e-006 5.30216e-007 1.53743e-007 4.09477e-006 5.30957e-007 1.53204e-007 4.09479e-006 0.018983 -0.0011921 -5.78671e-005 5.30055e-007 1.53942e-007 4.09476e-006 5.30957e-007 1.53204e-007 4.09479e-006 0.0122034 -0.00323036 -0.000672154 5.30464e-007 1.53804e-007 4.09479e-006 5.30957e-007 1.53204e-007 4.09479e-006 2.48017e-006 -8.68502e-007 5.44497e-006 5.30957e-007 1.53204e-007 4.09479e-006 -98.2806 -26.5146 -85.628 -176.858 72.0332 172.425 -7.51296 13.397 -2.0442 5.3725e-008 2.57088e-007 -3.74484e-006 10.2995 -6.35673 15.1783 -8.68524 37.2479 31.7919 2.80651 36.0484 -12.8508 3.85048e-006 -4.0928e-007 1.23642e-006 
12.5057 2.83882 20.2118 -49.6974 61.9718 46.144 -1.37452 3.30683 0.217976 -2.76858 6.60742 0.516777 -2.76858 6.60743 0.516782 0.000129488 -24.0063 2.78079e-005 -0.230437 -21.9119 -0.577834 -8.74337 0.0812623 6.9025 -49.0979 -41.6438 -35.5867 46.7689 -31.2661 -113.697 27.0555 9.32779 -19.9488 1.02687e-006 9.3093e-009 -2.88503e-006 6.60511e-007 -5.14793e-007 1.62058e-007 -3.66362e-007 -5.24103e-007 3.04709e-006 1.02687e-006 9.3093e-009 -2.88503e-006 -0.0146176 -9.17959e-005 -2.65279e-006 6.60506e-007 -5.14814e-007 1.61991e-007 1.02687e-006 9.3093e-009 -2.88503e-006 -0.0187749 -0.00117697 6.17064e-005 6.60506e-007 -5.1482e-007 1.61967e-007 1.02687e-006 9.3093e-009 -2.88503e-006 -0.0122682 -0.00324563 0.000681684 -3.67926e-007 -5.24863e-007 3.04713e-006 1.02687e-006 9.3093e-009 -2.88503e-006 6.60511e-007 -5.14793e-007 1.62058e-007 -3.66362e-007 -5.24103e-007 3.04709e-006 5.08057 0.114755 -4.37345 58.7256 -39.6531 52.1452 -50.7655 -19.4064 93.4372 8.88295 -36.8865 -8.19242 -1.66079e-006 8.3417e-007 6.7705e-008 -1.98626e-031 2.38542e-015 4.77083e-015 -9.54166e-015 1.59028e-015 1.59028e-015 -1.66079e-006 8.3417e-007 6.7705e-008 0.015022 -9.40908e-005 -9.76518e-006 -6.36111e-015 0 -0 -1.66079e-006 8.3417e-007 6.7705e-008 0.0190467 -0.00119206 -5.79423e-005 -2.18067e-007 -3.38197e-007 -2.6837e-006 -1.66079e-006 8.3417e-007 6.7705e-008 0.0122527 -0.00324265 -0.000672803 -9.54166e-015 7.15625e-015 -3.18055e-015 -1.66079e-006 8.3417e-007 6.7705e-008 -1.98626e-031 2.38542e-015 4.77083e-015 -9.54166e-015 1.59028e-015 1.59028e-015 -98.2804 -26.5143 -85.6275 -176.858 72.033 172.425 -7.51268 13.3966 -2.04409 -1.89928e-006 -1.64783e-006 1.84556e-006 10.1903 -6.01876 15.1252 -8.64129 36.6067 31.7565 2.96791 36.331 -12.8567 -7.27981e-007 6.11648e-006 2.0617e-006 
12.5693 2.8095 20.3339 -49.6974 61.9718 46.144 -1.37452 3.30683 0.217976 -2.76858 6.60742 0.516777 -2.76858 6.60743 0.516782 8.11837e-005 -24.0063 4.29623e-006 -0.39628 -21.4785 -1.12981 -9.22133 0.355876 6.8482 -49.0979 -41.6438 -35.5868 46.7689 -31.2661 -113.697 27.3291 9.36324 -20.4251 -9.91164e-007 7.72086e-007 -2.41744e-007 -3.30388e-007 2.57362e-007 -8.05812e-008 -9.91164e-007 7.72086e-007 -2.41744e-007 -9.91164e-007 7.72086e-007 -2.41744e-007 -0.0146221 -8.77145e-005 2.68401e-006 -2.02896e-006 7.48191e-007 2.63916e-006 -9.91164e-007 7.72086e-007 -2.41744e-007 -0.0187474 -0.00117515 6.42104e-005 -9.91157e-007 7.72127e-007 -2.41607e-007 -9.91164e-007 7.72086e-007 -2.41744e-007 -0.0122788 -0.00325076 0.000675629 -9.9116e-007 7.7212e-007 -2.41633e-007 -9.91164e-007 7.72086e-007 -2.41744e-007 -3.30388e-007 2.57362e-007 -8.05812e-008 -9.91164e-007 7.72086e-007 -2.41744e-007 5.40121 0.400316 -4.27943 58.7256 -39.6531 52.1452 -50.7655 -19.4064 93.4372 8.92376 -36.6315 -7.88453 5.12212e-007 1.60342e-007 4.10157e-006 8.25865e-007 -1.46088e-008 5.51061e-006 5.12212e-007 1.60342e-007 4.10157e-006 5.12212e-007 1.60342e-007 4.10157e-006 0.0150298 -9.12144e-005 4.80336e-006 3.14932e-007 -1.74774e-007 1.40906e-006 5.12212e-007 1.60342e-007 4.10157e-006 0.0189599 -0.00118933 -5.21356e-005 5.11312e-007 1.6108e-007 4.10155e-006 5.12212e-007 1.60342e-007 4.10157e-006 0.0122897 -0.00325213 -0.000670892 5.11717e-007 1.60946e-007 4.10158e-006 5.12212e-007 1.60342e-007 4.10157e-006 8.25865e-007 -1.46088e-008 5.51061e-006 5.12212e-007 1.60342e-007 4.10157e-006 -98.2803 -26.5139 -85.6271 -176.858 72.0326 172.425 -7.51244 13.3961 -2.04398 6.63378e-006 -1.38366e-007 -1.07316e-005 10.0819 -5.68073 15.0727 -8.59938 35.9646 31.7227 3.13074 36.6133 -12.8637 -1.16392e-006 -1.05455e-006 -7.15316e-007 
